<svg xmlns="http://www.w3.org/2000/svg" viewBox="0 0 240 72" role="img" aria-labelledby="title desc">
  <title id="title">마더책방 로고</title>
  <desc id="desc">꽃과 열린 책을 품은 마더책방 로고</desc>
  <defs>
    <linearGradient id="book" x1="10" y1="10" x2="66" y2="62" gradientUnits="userSpaceOnUse">
      <stop stop-color="#F9C9B7"/>
      <stop offset="1" stop-color="#F6D86F"/>
    </linearGradient>
    <linearGradient id="leaf" x1="13" y1="56" x2="62" y2="16" gradientUnits="userSpaceOnUse">
      <stop stop-color="#3D805E"/>
      <stop offset="1" stop-color="#8CB579"/>
    </linearGradient>
  </defs>
  <rect x="4" y="5" width="62" height="62" rx="18" fill="#FFF8E8"/>
  <path d="M17 23c8-5 16-4 22 1v31c-6-5-14-6-22-1V23Z" fill="url(#book)" stroke="#2F6B4F" stroke-width="2.8" stroke-linejoin="round"/>
  <path d="M39 24c6-5 14-6 22-1v31c-8-5-16-4-22 1V24Z" fill="#FFFFFF" stroke="#2F6B4F" stroke-width="2.8" stroke-linejoin="round"/>
  <path d="M39 24v31" stroke="#2F6B4F" stroke-width="2.8" stroke-linecap="round"/>
  <path d="M32 18c1.6-6.4 7.9-9.4 12.4-5.5 4.5-3.9 10.8-.9 12.4 5.5-4.7-.6-8.8.7-12.4 4-3.6-3.3-7.7-4.6-12.4-4Z" fill="#F48A79"/>
  <path d="M16 56c6.5-2.2 11.8-.8 16 4.2-6.9 2.1-12.2.7-16-4.2Z" fill="url(#leaf)"/>
  <circle cx="58" cy="17" r="4.5" fill="#F6D86F"/>
  <path d="M58 8.5v17M49.5 17h17M52 11l12 12M64 11 52 23" stroke="#F6D86F" stroke-width="2.1" stroke-linecap="round"/>
  <text x="82" y="31" fill="#20352B" font-family="Pretendard, Apple SD Gothic Neo, Malgun Gothic, sans-serif" font-size="25" font-weight="900">마더책방</text>
  <text x="84" y="53" fill="#D87562" font-family="Pretendard, Apple SD Gothic Neo, Malgun Gothic, sans-serif" font-size="10.5" font-weight="800">책으로 마음을 잇는 그림책놀이</text>
</svg>
