<svg xmlns="http://www.w3.org/2000/svg" viewBox="0 0 640 440" role="img" aria-label="어르신 책놀이 일러스트">
  <rect width="640" height="440" fill="#FFF3DC"/>
  <circle cx="528" cy="90" r="82" fill="#FFE2A7"/>
  <path d="M0 348c86-48 157-49 231-4 73 45 155 45 250 1 66-31 119-36 159-16v111H0V348Z" fill="#DDEDD6"/>
  <rect x="70" y="82" width="500" height="258" rx="34" fill="#fffaf0" stroke="#E7CFA3" stroke-width="6"/>
  <path d="M139 243c41-26 83-26 126 0v80c-43-26-85-26-126 0v-80Z" fill="#F9C9B7" stroke="#2F6B4F" stroke-width="8" stroke-linejoin="round"/>
  <path d="M265 243c43-26 85-26 126 0v80c-41-26-83-26-126 0v-80Z" fill="#FFF" stroke="#2F6B4F" stroke-width="8" stroke-linejoin="round"/>
  <circle cx="216" cy="164" r="45" fill="#F7D0B9"/>
  <path d="M176 153c10-48 74-55 91-8-37-17-64-14-91 8Z" fill="#D8D0BC"/>
  <circle cx="424" cy="164" r="45" fill="#F7D0B9"/>
  <path d="M384 153c10-48 74-55 91-8-37-17-64-14-91 8Z" fill="#D8D0BC"/>
  <path d="M194 177c17 15 32 15 47 0M402 177c17 15 32 15 47 0" fill="none" stroke="#814F3A" stroke-width="8" stroke-linecap="round"/>
  <circle cx="183" cy="312" r="16" fill="#F48A79"/>
  <circle cx="466" cy="303" r="20" fill="#F6D86F"/>
  <path d="M90 70h42M111 49v42M512 305h42M533 284v42" stroke="#F6D86F" stroke-width="9" stroke-linecap="round"/>
</svg>
